<?xml version="1.0" standalone="no"?><!DOCTYPE svg PUBLIC "-//W3C//DTD SVG 1.1//EN" "http://www.w3.org/Graphics/SVG/1.1/DTD/svg11.dtd"><svg t="1740383830588" class="icon" viewBox="0 0 1024 1024" version="1.1" xmlns="http://www.w3.org/2000/svg" p-id="5705" xmlns:xlink="http://www.w3.org/1999/xlink" width="200" height="200"><path d="M580.531582 959.931224c-0.489075-0.489075-0.978149-1.100418-1.467224-1.589493-7.458388-1.467224-12.960478-7.580657-13.816358-15.283582-25.309612-30.200358-42.427224-64.802388-51.719642-101.116179h-59.911642c-9.903761 0-17.606687 7.825194-17.606686 17.606687v81.553194c0 9.903761-7.825194 17.606687-17.606687 17.606686h-61.134328c-9.903761 0-17.606687-7.825194-17.606687-17.606686V147.700537c0-9.903761 7.825194-17.606687 17.606687-17.606686h288.55403c9.781493 0 17.606687 7.825194 17.606686 17.606686v305.671642l-0.244537 86.566209c22.864239-9.536955 47.195701-15.772657 72.138507-18.340298 2.934448-2.078567 6.480239-3.423522 10.515105-3.423523h175.088716V574.662687c8.314269 6.480239 16.384 13.327284 23.964657 20.90794 16.628537 16.628537 30.444896 35.213373 41.815881 55.143164V469.878448c0-9.903761-7.825194-17.606687-17.606687-17.606687H744.860657c-9.903761 0-17.606687-7.825194-17.606687-17.606686V81.92c0-9.903761-7.825194-17.606687-17.606686-17.606687H551.064836c-9.903761 0-17.606687-7.825194-17.606687-17.606686V17.606687c0-9.903761-7.825194-17.606687-17.606686-17.606687h-28.977672c-9.903761 0-17.606687 7.825194-18.095761 17.606687v29.589014c0 9.903761-7.825194 17.606687-17.606687 17.606687H292.466627c-9.903761 0-17.606687 7.825194-17.606687 17.606687v223.87391c0 9.903761-7.825194 17.606687-17.606686 17.606687H33.990687c-9.781493-0.122269-17.606687 7.702925-17.606687 17.484418V1006.271045c0 9.903761 7.825194 17.606687 17.606687 17.606686h652.54782c-39.615045-12.104597-75.928836-33.868418-106.006925-63.946507z m-306.649791-18.829373c0 9.903761-7.825194 17.606687-17.606687 17.606686h-28.977671c-9.903761 0-17.606687-7.825194-17.606687-17.606686V859.548657c0-9.903761-7.825194-17.606687-17.606686-17.606687H163.106388c-9.903761 0-17.606687 7.825194-17.606687 17.606687v81.553194c0 9.903761-7.825194 17.606687-17.606686 17.606686H98.793075c-9.903761 0-17.606687-7.825194-17.606687-17.606686V406.176478c0-9.903761 7.825194-17.606687 17.606687-17.606687h176.189134l-1.100418 552.53206z" p-id="5706" fill="#1296db"></path><path d="M163.473194 776.650507h28.977672c9.903761 0 17.606687-7.825194 17.606686-17.606686V729.943881c0-9.903761-7.825194-17.606687-17.606686-17.606687h-46.584359v46.584358c0 9.903761 7.825194 17.728955 17.606687 17.728955zM163.473194 517.563224h28.977672c9.903761 0 17.606687-7.825194 17.606686-17.606687v-28.977671c0-9.781493-7.825194-17.606687-17.606686-17.606687h-46.584359v46.584358c0 9.903761 7.825194 17.606687 17.606687 17.606687zM163.473194 647.045731h28.977672c9.903761 0 17.606687-7.825194 17.606686-17.606686v-28.977672c0-9.903761-7.825194-17.606687-17.606686-17.606686h-46.584359v46.584358c0 9.903761 7.825194 17.606687 17.606687 17.606686zM454.717134 258.47594h93.78006c9.903761 0 17.606687-7.825194 17.606687-17.606686v-28.977672c0-9.903761-7.825194-17.606687-17.606687-17.606686h-111.875821l0.489075 46.584358c0 9.903761 7.702925 17.606687 17.606686 17.606686zM437.110448 499.956537c0 9.903761 7.825194 17.606687 17.606686 17.606687h93.78006c9.903761 0 17.606687-7.825194 17.606687-17.606687v-28.977671c0-9.781493-7.825194-17.606687-17.606687-17.606687h-111.875821l0.489075 46.584358zM548.497194 582.854687h-111.875821l0.489075 46.584358c0 9.903761 7.825194 17.606687 17.606686 17.606686h86.199403c7.336119-12.349134 15.650388-24.331463 25.187344-35.580179v-11.004179c0-9.781493-7.825194-17.606687-17.606687-17.606686zM437.110448 370.47403c0 9.903761 7.825194 17.606687 17.606686 17.606686h93.78006c9.903761 0 17.606687-7.825194 17.606687-17.606686v-28.977672c0-9.903761-7.825194-17.606687-17.606687-17.606686h-111.875821l0.489075 46.584358zM436.499104 712.337194l0.489075 46.584358c0 9.903761 7.825194 17.606687 17.606687 17.606687h50.496955c0.122269-21.641552 3.056716-43.160836 8.558806-64.191045h-77.151523zM996.856358 959.931224l-80.452776-80.452776c19.929791-29.955821 30.689433-65.046925 30.689433-101.849791 0-49.274269-19.196179-95.491821-54.042746-130.338388-34.846567-34.846567-81.064119-54.042746-130.338388-54.042747s-95.491821 19.196179-130.338388 54.042747c-71.89397 71.89397-71.89397 188.782806 0 260.676776a183.036179 183.036179 0 0 0 130.338388 54.042746c36.802866 0 71.89397-10.759642 101.849791-30.689433l80.330507 80.330508c7.213851 7.213851 16.506269 10.759642 25.920955 10.759641s18.829373-3.545791 25.920956-10.759641a36.423833 36.423833 0 0 0 0.122268-51.719642z m-312.640955-103.683821c-43.283104-43.283104-43.283104-113.709851 0-156.992955a110.335236 110.335236 0 0 1 78.496478-32.523463c29.589015 0 57.466269 11.493254 78.496477 32.523463 20.90794 20.90794 32.523463 48.785194 32.523463 78.496477s-11.493254 57.466269-32.523463 78.496478a110.335236 110.335236 0 0 1-78.496477 32.523463 111.264478 111.264478 0 0 1-78.496478-32.523463z" p-id="5707" fill="#1296db"></path></svg>